<?xml version="1.0" encoding="UTF-8" standalone="no"?>
<!-- Created with Inkscape (http://www.inkscape.org/) -->

<svg
   xmlns:dc="http://purl.org/dc/elements/1.1/"
   xmlns:cc="http://creativecommons.org/ns#"
   xmlns:rdf="http://www.w3.org/1999/02/22-rdf-syntax-ns#"
   xmlns:svg="http://www.w3.org/2000/svg"
   xmlns="http://www.w3.org/2000/svg"
   xmlns:sodipodi="http://sodipodi.sourceforge.net/DTD/sodipodi-0.dtd"
   xmlns:inkscape="http://www.inkscape.org/namespaces/inkscape"
   version="1.0"
   viewBox="0 0 754.3162 875.32039"
   width="8.8652639in"
   height="9.1228495in"
   id="svg9559"
   class="midwest"
   sodipodi:version="0.32"
   inkscape:version="0.91 r13725"
   sodipodi:docname="il_in.svg"
   inkscape:output_extension="org.inkscape.output.svg.inkscape">
  <metadata
     id="metadata3671">
    <rdf:RDF>
      <cc:Work
         rdf:about="">
        <dc:format>image/svg+xml</dc:format>
        <dc:type
           rdf:resource="http://purl.org/dc/dcmitype/StillImage" />
        <dc:title></dc:title>
      </cc:Work>
    </rdf:RDF>
  </metadata>
  <sodipodi:namedview
     inkscape:window-height="1027"
     inkscape:window-width="1920"
     inkscape:pageshadow="2"
     inkscape:pageopacity="0.0"
     guidetolerance="10.0"
     gridtolerance="10.0"
     objecttolerance="10.0"
     borderopacity="1.0"
     bordercolor="#666666"
     pagecolor="#ffffff"
     id="base"
     inkscape:zoom="0.84053736"
     inkscape:cx="-22.029737"
     inkscape:cy="397.98393"
     inkscape:window-x="-8"
     inkscape:window-y="-8"
     inkscape:current-layer="svg9559"
     showguides="true"
     inkscape:guide-bbox="true"
     showgrid="false"
     units="in"
     fit-margin-left="0.25"
     fit-margin-top="0.25"
     fit-margin-right="0.25"
     fit-margin-bottom="0.25"
     inkscape:window-maximized="1" />
  <defs
     id="defs9561" />
  <g id="region_1">
  <path
     d="m 626.84794,236.51581 11.20258,-0.63237 2.77554,66.43913 17.87292,-0.17408 0.53727,11.27721 -51.65778,1.18535 -0.42936,-28.49925 21.91649,-0.51013 -2.21766,-49.08586"
     id="Ford_il"
     label="Ford, IL"
     inkscape:label="Ford, IL"
     inkscape:connector-curvature="0" />
  <path
     d="m 593.68783,222.37834 32.43934,-1.37515 0.72077,15.51262 2.21766,49.08586 -21.91649,0.51013 -11.22305,0.30926 -0.92801,-7.02667 -0.34138,-11.35575 -33.66712,1.05869 -0.51059,-22.73119 -0.25825,-23.23874 33.46712,-0.74906"
     id="Livingston_il"
     label="Livingston, IL"
     inkscape:label="Livingston, IL"
     inkscape:connector-curvature="0" />
  <path
     d="m 638.05052,235.88344 58.79648,-3.12231 1.8861,67.66203 -40.03412,1.72533 -17.87292,0.17408 -2.77554,-66.43913"
     id="Iroquois_il"
     label="Iroquois, IL"
     inkscape:label="Iroquois, IL"
     inkscape:connector-curvature="0" />
  <path
     d="m 696.22819,212.45727 0.61881,20.30386 -58.79648,3.12231 -11.20258,0.63237 -0.72077,-15.51262 0.46814,-11.43703 16.8776,-0.83844 5.33821,-7.19656 -0.19925,-4.30676 47.12993,-1.97522 0.48633,17.20809"
     id="Kankakee_il"
     label="Kankakee, IL"
     inkscape:label="Kankakee, IL"
     inkscape:connector-curvature="0" />
  <path
     d="m 694.484,141.81681 29.33118,10.14176 1.90542,49.75067 -5.41611,3.209 -24.0763,7.53903 -0.48633,-17.20809 -1.25786,-53.43237"
     id="Lake_in"
     label="Lake, IN"
     inkscape:label="Lake, IN"
     inkscape:connector-curvature="0" />
  <path
     d="m 751.30679,139.72034 2.41107,61.7099 -0.88783,1.0319 -2.85993,1.37396 -0.837,-0.29257 -7.16567,-5.18545 -5.11957,-2.13355 -1.91388,-0.60989 -1.09565,0.15416 -5.65461,2.83237 -2.46311,3.108 -1.90543,-49.75068 27.49161,-12.23822"
     id="Porter_in"
     label="Porter, IN"
     inkscape:label="Porter, IN"
     inkscape:connector-curvature="0" />
  <path
     d="m 761.47673,132.95003 28.88613,-0.99907 1.56268,42.52849 -11.35128,0.43217 -5.46373,4.15151 -2.4385,7.4745 -0.7461,1.67422 -1.87704,3.06337 -2.41706,3.34215 -2.9591,1.67968 -10.95487,5.13319 -2.41107,-61.7099 10.16994,-6.77031"
     id="LaPorte_in"
     label="LaPorte, IN"
     inkscape:label="LaPorte, IN"
     inkscape:connector-curvature="0" />
  <path
     d="m 617.39946,41.233277 9.91043,-0.389541 1.03807,44.528037 -3.71703,0.0945 -33.49229,0.66708 -11.16499,0.18205 -0.87426,-44.246453 38.30007,-0.835673"
     id="McHenry_il"
     label="McHenry, IL"
     inkscape:label="McHenry, IL"
     inkscape:connector-curvature="0" />
  <path
     d="m 627.30989,40.843736 38.01586,-0.299882 0.0401,0.0024 0.29402,2.592723 -0.42264,11.349281 -1.02537,2.622651 -0.38829,0.428841 -0.88192,4.059621 -0.23282,3.807632 0.65606,4.073192 1.70167,4.901562 1.25023,3.073632 4.05918,7.137713 -42.02796,0.778621 -1.03807,-44.52803"
     id="Lake_il"
     label="Lake, IL"
     inkscape:label="Lake, IL"
     inkscape:connector-curvature="0" />
  <path
     d="m 628.34796,85.371773 42.02795,-0.778651 8.74466,13.408557 4.30116,14.856621 0.89142,4.00715 0.73273,4.29918 0.76746,3.07427 0.31107,0.83367 0.59004,1.53466 2.48551,5.24118 5.28404,9.9684 0.71519,31.06129 -25.54885,0.70034 -23.3765,-21.82654 -0.28255,-5.74003 10.96537,-4.31791 -1.35118,-31.35164 -1.12395,-4.64493 -9.58734,0.36907 -22.19659,1.30766 1.93333,-21.907847 3.71703,-0.0945"
     id="Cook_il"
     label="Cook, IL"
     inkscape:label="Cook, IL"
     inkscape:connector-curvature="0" />
  <path
     d="m 623.47186,141.41609 -0.77426,-34.04197 22.19659,-1.30766 9.58734,-0.36907 1.12395,4.64493 1.35118,31.35164 -10.96537,4.31791 -22.47936,-4.59334 -0.0402,-0.002"
     id="DuPage_il"
     label="DuPage, IL"
     inkscape:label="DuPage, IL"
     inkscape:connector-curvature="0" />
  <path
     d="m 623.51193,141.41853 22.47936,4.59334 0.28255,5.74003 23.3765,21.82654 25.54885,-0.70034 0.54267,22.37108 -47.12992,1.97522 0.19923,4.30676 -5.3382,7.19656 -16.87761,0.83844 -1.44807,-34.04291 -1.63536,-34.10472"
     id="Will_il"
     label="Will, IL"
     inkscape:label="Will, IL"
     inkscape:connector-curvature="0" />
  <path
     d="m 698.77062,302.27607 0.72286,42.93976 0.7837,34.54543 -39.88669,1.4527 -1.55855,-45.06275 1.32062,-0.0501 -0.91628,-22.67553 -0.5373,-11.27722 40.03412,-1.72533 0.0375,1.85291"
     id="Vermilion_il"
     label="Vermilion, IL"
     inkscape:label="Vermilion, IL"
     inkscape:connector-curvature="0" />
  <path
     d="m 421.83266,351.97932 6.84262,8.98757 8.76615,0.39538 0.18645,-0.0892 10.00289,-3.38108 9.22416,-3.14705 0.44494,-0.69694 0.0759,26.87849 0.0383,3.81416 -58.16891,-0.56061 6.94851,-14.45017 15.63962,-17.76059"
     id="Cass_il"
     label="Cass, IL"
     inkscape:label="Cass, IL"
     inkscape:connector-curvature="0" />
  <path
     d="m 510.19824,715.72537 24.12355,-0.25444 -1.17534,14.11935 -1.12411,13.11673 0.8275,2.09231 0.75281,1.01157 2.42634,1.27484 6.47235,3.20195 4.15716,11.12649 -19.52009,-3.31606 -6.48355,-5.97851 -3.06608,-9.06836 -5.5543,-12.12719 -2.35904,-3.85552 0.52272,-11.34316"
     id="Alexander_il"
     label="Alexander, IL"
     inkscape:label="Alexander, IL"
     inkscape:connector-curvature="0" />
  <path
     d="m 534.32179,715.47093 20.82131,0.45882 11.86108,3.40077 0.25379,9.99264 -0.56214,0.14665 -24.19449,20.81787 -6.47235,-3.20195 -2.42634,-1.27484 -0.75281,-1.01157 -0.8275,-2.09231 1.12411,-13.11673 1.17534,-14.11935"
     id="Pulaski_il"
     label="Pulaski, IL"
     inkscape:label="Pulaski, IL"
     inkscape:connector-curvature="0" />
  <path
     d="m 567.00418,719.33052 22.26899,-4.7932 22.90558,22.78336 0.26476,12.11547 -7.3965,-1.24694 -37.78904,-18.86605 -0.25379,-9.99264"
     id="Massac_il"
     label="Massac, IL"
     inkscape:label="Massac, IL"
     inkscape:connector-curvature="0" />
  <path
     d="m 622.87458,679.69124 24.72311,2.7693 7.55507,8.8501 -0.12761,2.08418 -2.06871,2.08616 -1.04617,0.16733 -14.28089,2.1237 -2.15184,0.32097 -1.78356,0.38374 -0.65294,0.15123 -0.22041,-0.0137 -2.53563,1.33345 -0.5106,0.29061 -0.0902,-0.005 -1.82089,1.4878 -2.77412,3.25996 -5.8036,-2.29607 -0.13025,-23.02976 3.72398,-0.0438"
     id="Hardin_il"
     label="Hardin, IL"
     inkscape:label="Hardin, IL"
     inkscape:connector-curvature="0" />
  <path
     d="m 619.1506,679.735 0.13027,23.02975 -0.64784,0.23194 -1.80254,0.69436 -0.75516,0.50699 -0.95104,0.58551 -1.41683,1.62312 -0.60887,1.24008 -3.67414,12.5484 -0.005,0.10029 -0.11282,0.85804 0.70075,2.84892 3.97361,5.41265 1.31553,0.85489 1.18839,1.28965 2.49355,6.58935 -1.93178,7.08308 -1.41714,3.27256 -2.41848,0.89807 -0.76948,0.0839 -0.26476,-12.11545 -22.90561,-22.78339 -0.3017,-34.20414 30.17916,-0.59818"
     id="Pope_il"
     label="Pope, IL"
     inkscape:label="Pope, IL"
     inkscape:connector-curvature="0" />
  <path
     d="m 588.97144,680.33317 0.30173,34.20415 -22.26899,4.7932 -11.86108,-3.40077 -0.0858,-34.7743 33.91413,-0.82228"
     id="Johnson_il"
     label="Johnson, IL"
     inkscape:label="Johnson, IL"
     inkscape:connector-curvature="0" />
  <path
     d="m 555.05731,681.15545 0.0858,34.7743 -20.82131,-0.45882 -24.12355,0.25444 3.75807,-0.76583 1.20912,-0.52951 0.0982,-0.12492 0.10628,-0.094 0.0882,-0.12546 0.48558,-1.19733 0.64411,-3.95347 0.0605,-0.16726 -0.0414,-0.14336 -0.44817,-2.20992 -0.0371,-0.21349 -0.0339,-0.10263 -1.39949,-3.75662 -1.16568,-1.66039 -2.5148,-2.7889 -1.72037,-2.95152 -2.55668,-5.55728 -0.04,-0.002 -0.48317,-2.62438 -0.0185,-1.17787 0.0473,-0.77155 37.41843,-4.0175 11.4018,0.38656"
     id="Union_il"
     label="Union, IL"
     inkscape:label="Union, IL"
     inkscape:connector-curvature="0" />
  <path
     d="m 653.24238,641.1473 4.40096,11.74487 -1.61354,4.8396 -0.57127,1.2826 -0.8467,1.34622 -1.30335,1.24786 -4.90844,3.12941 -0.0862,0.0954 -1.82141,2.97627 -0.90684,1.34255 -0.14754,0.27259 -0.62934,1.40981 -0.19535,0.89322 0.0414,0.14335 0.35212,2.95836 0.0515,0.14389 1.8052,6.00417 0.73093,1.53321 -24.72311,-2.76934 -0.6685,-40.21085 0.006,-0.10028 31.03077,1.75721"
     id="Gallatin_il"
     label="Gallatin, IL"
     inkscape:label="Gallatin, IL"
     inkscape:connector-curvature="0" />
  <path
     d="m 622.20608,639.48036 0.6685,40.21088 -3.72398,0.0438 -30.17916,0.59817 -0.38533,-34.48084 -0.0557,-5.66583 33.67572,-0.70614"
     id="Saline_il"
     label="Saline, IL"
     inkscape:label="Saline, IL"
     inkscape:connector-curvature="0" />
  <path
     d="m 588.58611,645.85233 0.38533,34.48084 -33.91413,0.82228 -11.40186,-0.38455 -0.1344,-34.14365 45.06503,-0.77392"
     id="Williamson_il"
     label="Williamson, IL"
     inkscape:label="Williamson, IL"
     inkscape:connector-curvature="0" />
  <path
     d="m 498.41868,634.85607 42.27542,0.27244 2.82698,11.49773 0.13441,34.14365 -37.4185,4.01747 -15.74154,-30.06941 7.92323,-19.86188"
     id="Jackson_il"
     label="Jackson, IL"
     inkscape:label="Jackson, IL"
     inkscape:connector-curvature="0" />
  <path
     d="m 430.75319,561.32021 11.84652,12.19017 22.43884,20.71316 2.40334,6.091 -13.82441,-0.24205 0.0353,11.42755 -16.97954,6.12248 -4.89556,-4.15147 -7.99142,-8.78628 -0.24338,-0.29648 -0.29306,-0.47053 -1.69867,-2.64846 -0.99522,-2.96752 -0.99726,-5.89438 0.14108,-5.43251 0.17051,-1.30713 0.22348,-0.52942 1.7794,-4.91996 0.50605,-0.87425 0.30262,-0.34355 8.07139,-17.68037"
     id="Monroe_il"
     label="Monroe, IL"
     inkscape:label="Monroe, IL"
     inkscape:connector-curvature="0" />
  <path
     d="m 498.40345,600.40795 0.0152,34.44812 -7.92323,19.86188 -26.82137,-9.24399 -27.00088,-27.85144 16.97954,-6.12248 -0.0353,-11.42755 13.82441,0.24205 19.79513,0.13457 11.16643,-0.0412"
     id="Randolph_il"
     label="Randolph, IL"
     inkscape:label="Randolph, IL"
     inkscape:connector-curvature="0" />
  <path
     d="m 498.40345,600.40795 44.97146,0.42728 1.99468,11.45689 -4.67549,22.83639 -42.27542,-0.27244 -0.0152,-34.44812"
     id="Perry_il"
     label="Perry, IL"
     inkscape:label="Perry, IL"
     inkscape:connector-curvature="0" />
  <path
     d="m 588.27379,611.65759 0.31232,34.19474 -45.06503,0.77391 -2.82698,-11.49773 4.67549,-22.83639 42.9042,-0.63453"
     id="Franklin_il"
     label="Franklin, IL"
     inkscape:label="Franklin, IL"
     inkscape:connector-curvature="0" />
  <path
     d="m 621.75178,594.12311 0.45981,45.26709 -0.006,0.10027 -33.6757,0.70614 -0.25657,-28.52892 -0.0479,-17.14105 33.52587,-0.39345"
     id="Hamilton_il"
     label="Hamilton, IL"
     inkscape:label="Hamilton, IL"
     inkscape:connector-curvature="0" />
  <path
     d="m 660.05733,592.70444 3.49072,4.42761 -1.40976,13.51161 -3.27345,29.84177 -0.30427,0.53455 -0.0661,0.0966 -0.2296,0.13678 -0.17039,-0.01 -4.85076,-0.11556 -31.03077,-1.75721 -0.45983,-45.26709 22.16004,-0.54554 16.14551,-0.87314"
     id="White_il"
     label="White, IL"
     inkscape:label="White, IL"
     inkscape:connector-curvature="0" />
  <path
     d="m 588.11661,566.04691 0.1093,28.46962 0.0479,17.14106 -42.9042,0.63453 -1.99468,-11.45689 -0.0473,-34.08803 44.78899,-0.70029"
     id="Jefferson_il"
     label="Jefferson, IL"
     inkscape:label="Jefferson, IL"
     inkscape:connector-curvature="0" />
  <path
     d="m 543.33885,562.94611 -0.0112,3.8011 0.0473,34.08802 -44.97144,-0.42728 -11.16645,0.0412 -0.22062,-25.9922 3.63709,-3.22728 5.41265,-3.9736 4.16193,-1.28427 30.38837,-3.36123 12.72242,0.33549"
     id="Washington_il"
     label="Washington, IL"
     inkscape:label="Washington, IL"
     inkscape:connector-curvature="0" />
  <path
     d="m 531.91366,531.86338 11.6094,0.60948 -0.18299,30.45322 -12.72242,-0.33568 -30.38837,3.36125 -4.16192,1.28425 -5.41264,3.97362 -3.63709,3.22728 -0.42375,-30.89262 10.90623,-11.57303 34.41477,-0.12789"
     id="Clinton_il"
     label="Clinton, IL"
     inkscape:label="Clinton, IL"
     inkscape:connector-curvature="0" />
  <path
     d="m 438.97403,543.00528 47.6186,0.55899 0.42377,30.89264 0.22062,25.9922 -19.79513,-0.13457 -2.40334,-6.091 -22.43884,-20.71316 -11.84652,-12.19017 0.54836,-1.56562 7.67248,-16.74931"
     id="St_Clair_il"
     label="St. Clair, IL"
     inkscape:label="St. Clair, IL"
     inkscape:connector-curvature="0" />
  <path
     d="m 493.10231,498.63294 0.31147,10.52921 1.23812,5.73814 2.67279,8.09893 0.17419,8.99205 -10.90625,11.573 -47.6186,-0.55899 -1.42799,-10.5271 7.81759,-8.43287 0.29519,-1.20897 0.54335,-2.96393 -0.0437,-0.76703 -0.36669,-0.74659 -9.43744,-6.52124 -1.8352,-1.23868 -2.45092,-1.36689 -2.52735,-0.93908 12.97027,-9.63639 44.69415,0.0281 5.89692,-0.0517"
     id="Madison_il"
     label="Madison, IL"
     inkscape:label="Madison, IL"
     inkscape:connector-curvature="0" />
  <path
     d="m 531.92157,494.57036 -0.008,37.29302 -34.41478,0.12789 -0.17419,-8.99205 -2.67279,-8.09893 -1.23812,-5.73814 -0.31147,-10.52921 38.81926,-4.06258"
     id="Bond_il"
     label="Bond, IL"
     inkscape:label="Bond, IL"
     inkscape:connector-curvature="0" />
  <path
     d="m 543.52184,532.49292 -0.0729,-11.47011 13.84035,-0.0184 30.50386,-0.80963 0.15535,28.70379 0.16813,17.14837 -44.78899,0.70029 0.0112,-3.80109 0.18298,-30.4532"
     id="Marion_il"
     label="Marion, IL"
     inkscape:label="Marion, IL"
     inkscape:connector-curvature="0" />
  <path
     d="m 632.59069,548.95366 10.78079,3.79734 0.54034,40.82658 -22.16004,0.54553 -33.52587,0.39342 -0.1093,-28.46962 -0.16813,-17.14837 44.64221,0.0551"
     id="Wayne_il"
     label="Wayne, IL"
     inkscape:label="Wayne, IL"
     inkscape:connector-curvature="0" />
  <path
     d="m 666.984,551.97247 26.23187,-0.35682 -8.44935,20.24205 -21.03958,24.65164 -0.17873,0.62271 -3.49073,-4.42761 2.6661,-40.63047 4.26055,-0.1015"
     id="Wabash_il"
     label="Wabash, IL"
     inkscape:label="Wabash, IL"
     inkscape:connector-curvature="0" />
  <path
     d="m 662.72345,552.07396 -2.6661,40.63048 -16.14551,0.87314 -0.54034,-40.82658 19.35197,-0.67704"
     id="Edwards_il"
     label="Edwards, IL"
     inkscape:label="Edwards, IL"
     inkscape:connector-curvature="0" />
  <path
     d="m 704.15342,514.20664 0.40467,0.12544 0.19839,0.37419 3.34212,8.50194 -0.23326,3.15386 -1.91538,8.13005 -1.10292,1.75298 -0.84268,0.62234 -8.52422,9.62669 -2.26747,5.17172 -26.23188,0.35682 -0.4413,-36.52592 37.61072,-1.2399"
     id="Lawrence_il"
     label="Lawrence, IL"
     inkscape:label="Lawrence, IL"
     inkscape:connector-curvature="0" />
  <path
     d="m 666.5427,515.44654 0.4413,36.52593 -4.26055,0.10149 -19.35197,0.67704 -10.78079,-3.79734 -3.3744,-11.59157 -0.16229,-1.95104 0.19362,-3.65919 2.6314,0.0603 -0.44736,-15.21429 31.34206,-1.0299 3.76958,-0.13152"
     id="Richland_il"
     label="Richland, IL"
     inkscape:label="Richland, IL"
     inkscape:connector-curvature="0" />
  <path
     d="m 587.77586,508.63756 33.23631,-0.0994 0.14903,8.40013 10.26929,-0.32737 0.44734,15.21431 -2.63141,-0.0603 -0.19352,3.65916 0.16227,1.95105 3.37442,11.59155 -44.64222,-0.0551 -0.15534,-28.70375 -0.0173,-11.55722"
     id="Clay_il"
     label="Clay, IL"
     inkscape:label="Clay, IL"
     inkscape:connector-curvature="0" />
  <path
     d="m 655.56202,473.47852 5.72942,-0.27315 1.48169,42.37267 -41.61243,1.36827 -0.74795,-42.34891 35.14927,-1.11888"
     id="Jasper_il"
     label="Jasper, IL"
     inkscape:label="Jasper, IL"
     inkscape:connector-curvature="0" />
  <path
     d="m 661.29144,473.20537 32.09249,1.50021 1.60936,7.06834 4.36174,5.80852 6.39053,13.25449 -0.52242,4.1017 -0.84646,1.99999 -0.64082,0.77546 0.41756,6.49256 -37.61072,1.2399 -3.76957,0.1315 -1.48169,-42.37267"
     id="Crawford_il"
     label="Crawford, IL"
     inkscape:label="Crawford, IL"
     inkscape:connector-curvature="0" />
  <path
     d="m 659.37841,433.28048 26.9242,-1.48114 -0.0251,1.39646 15.61941,-0.49295 -6.37735,28.62604 -2.13566,13.37669 -32.09249,-1.50021 -5.72942,0.27315 -1.04129,-26.71629 4.85768,-13.48175"
     id="Clark_il"
     label="Clark, IL"
     inkscape:label="Clark, IL"
     inkscape:connector-curvature="0" />
  <path
     d="m 654.52074,446.76224 1.04128,26.71628 -46.12225,1.46055 -0.48279,-26.64891 45.56376,-1.52792"
     id="Cumberland_il"
     label="Cumberland, IL"
     inkscape:label="Cumberland, IL"
     inkscape:connector-curvature="0" />
  <path
     d="m 609.31286,469.11098 0.1176,5.83859 10.98209,-0.35218 0.59941,33.94076 -33.23629,0.0994 -11.31733,0.53484 -0.42554,-39.74341"
     id="Effingham_il"
     label="Effingham, IL"
     inkscape:label="Effingham, IL"
     inkscape:connector-curvature="0" />
  <path
     d="m 576.033,469.42897 0.42556,39.74341 11.3173,-0.53482 0.0173,11.55719 -30.50386,0.80963 -13.84035,0.0184 0.0729,11.47011 -11.60941,-0.60946 0.008,-37.29303 10.76633,-24.90785 33.3451,-0.23354"
     id="Fayette_il"
     label="Fayette, IL"
     inkscape:label="Fayette, IL"
     inkscape:connector-curvature="0" />
  <path
     d="m 553.34881,412.60419 21.27072,-0.14731 0.32388,9.5041 22.52682,14.83485 4.63226,2.04339 6.72344,-0.0816 0.13105,9.53256 0.35588,20.82082 -33.27986,0.31799 -33.34509,0.23354 -0.17119,-17.09827 11.37095,0.23272 -0.1278,-23.06985 -0.41106,-17.12301"
     id="Shelby_il"
     label="Shelby, IL"
     inkscape:label="Shelby, IL"
     inkscape:connector-curvature="0" />
  <path
     d="m 486.54127,430.28266 16.64411,-0.3096 0.47584,22.97042 27.75126,-0.20352 11.10424,-0.17572 0.17119,17.09827 -10.76634,24.90785 -38.81926,4.06258 -5.89692,0.0517 -0.66412,-68.40199"
     id="Montgomery_il"
     label="Montgomery, IL"
     inkscape:label="Montgomery, IL"
     inkscape:connector-curvature="0" />
  <path
     d="m 442.2885,464.4773 0.22274,34.17922 -12.97027,9.63639 -17.5209,-5.41649 -15.1546,-19.60382 2.2877,-8.79119 4.44253,-0.77429 2.73551,0.66014 0.5399,0.54594 0.0435,0.27425 1.64337,1.08615 17.20645,-0.29534 -0.0546,-6.67151 11.91089,-4.81321 4.66771,-0.0163"
     id="Jersey_il"
     label="Jersey, IL"
     inkscape:label="Jersey, IL"
     inkscape:connector-curvature="0" />
  <path
     d="m 464.26058,430.49896 22.28069,-0.2163 0.66412,68.40199 -44.69415,-0.0281 -0.22274,-34.17922 -0.61534,-33.68022 22.58742,-0.29812"
     id="Macoupin_il"
     label="Macoupin, IL"
     inkscape:label="Macoupin, IL"
     inkscape:connector-curvature="0" />
  <path
     d="m 362.49953,446.26086 33.48971,0.69053 0.87623,36.32121 15.1546,19.60382 -21.51443,4.29626 -4.4901,-14.72737 0,0 -0.19535,-0.91714 0.12544,-0.40468 2.97226,-4.03233 0.17943,-1.61836 -3.6798,-16.13617 -22.92095,-23.02568"
     id="Calhoun_il"
     label="Calhoun, IL"
     inkscape:label="Calhoun, IL"
     inkscape:connector-curvature="0" />
  <path
     d="m 441.67316,430.79708 0.61534,33.68022 -4.66771,0.0163 -11.91089,4.81322 0.0546,6.67151 -17.20645,0.29533 -1.64338,-1.08614 -0.0435,-0.27426 -0.53989,-0.54594 -2.73553,-0.66013 -4.44253,0.77429 -2.28769,8.79119 -0.87624,-36.32121 3.31829,-16.43229 27.68114,0.285 14.68449,-0.007"
     id="Greene_il"
     label="Greene, IL"
     inkscape:label="Greene, IL"
     inkscape:connector-curvature="0" />
  <path
     d="m 534.1571,392.0796 7.52964,1.5367 0.45862,18.97653 11.20345,0.0114 0.41106,17.12302 0.1278,23.06984 -11.37096,-0.23272 -11.10423,0.17573 -27.75126,0.20353 -0.47585,-22.97043 -0.23751,-15.1914 13.6373,-13.30685 13.87452,-9.62136 3.69742,0.22608"
     id="Christian_il"
     label="Christian, IL"
     inkscape:label="Christian, IL"
     inkscape:connector-curvature="0" />
  <path
     d="m 608.17298,412.10533 40.45786,-0.92494 -0.0814,-3.76651 3.69452,-0.54848 5.86149,-0.29523 1.27297,26.71031 -4.85767,13.48176 -45.56376,1.52792 -0.13105,-9.53256 -0.65295,-26.65227"
     id="Coles_il"
     label="Coles, IL"
     inkscape:label="Coles, IL"
     inkscape:connector-curvature="0" />
  <path
     d="m 660.39049,381.21396 39.88669,-1.4527 1.10932,35.96333 0.51044,16.97826 -15.6194,0.49295 0.0251,-1.39645 -26.92421,1.48114 -1.27297,-26.71032 -0.36334,-9.51658 2.71434,-4.42025 -0.0659,-11.41936"
     id="Edgar_il"
     label="Edgar, IL"
     inkscape:label="Edgar, IL"
     inkscape:connector-curvature="0" />
  <path
     d="m 608.59241,382.39072 51.79808,-1.17676 0.0659,11.41938 -2.71434,4.42025 0.36334,9.51658 -5.86149,0.29523 -3.69452,0.54848 0.0814,3.76651 -40.45786,0.92494 -0.46021,-18.2927 0.87964,-11.42191"
     id="Douglas_il"
     label="Douglas, IL"
     inkscape:label="Douglas, IL"
     inkscape:connector-curvature="0" />
  <path
     d="m 607.71277,393.81263 0.46021,18.2927 0.65295,26.65227 -6.72344,0.0816 -4.63226,-2.04339 -22.52682,-14.83485 -0.32388,-9.5041 6.18208,-18.19822 26.91116,-0.44603"
     id="Moultrie_il"
     label="Moultrie, IL"
     inkscape:label="Moultrie, IL"
     inkscape:connector-curvature="0" />
  <path
     d="m 580.31505,359.95267 0.48656,34.30599 -6.18208,18.19822 -21.27072,0.14731 -11.20345,-0.0114 -0.45862,-18.97653 -7.52964,-1.5367 -0.16586,-13.56775 7.03935,-17.25068 11.40035,-0.24815 22.12871,-1.02012 5.7554,-0.0402"
     id="Macon_il"
     label="Macon, IL"
     inkscape:label="Macon, IL"
     inkscape:connector-curvature="0" />
  <path
     d="m 498.35659,371.1225 9.35281,-0.15208 0.0658,5.66644 7.76749,1.92335 18.44857,-0.0484 0.16586,13.56775 -3.69741,-0.22608 -13.87453,9.62136 -13.6373,13.30685 0.23752,15.1914 -16.64411,0.3096 -22.28069,0.21631 0.14246,-3.79308 -0.50035,-2.83668 -5.50012,-18.93286 -0.92281,-8.75624 -0.0653,-11.42939 -0.0383,-3.81417 22.22264,-0.0891 6.64683,-2.1179 -0.0598,-2.63875 0.37309,-4.7847 11.7987,-0.18355"
     id="Sangamon_il"
     label="Sangamon, IL"
     inkscape:label="Sangamon, IL"
     inkscape:connector-curvature="0" />
  <path
     d="m 399.24456,384.19006 58.16889,0.56063 0.0653,11.42938 0.92282,8.75625 5.50011,18.93285 0.50036,2.83668 -0.14247,3.79307 -22.58742,0.29812 -14.68449,0.007 0.16388,-15.17691 -6.94995,-15.29019 -11.04934,-4.66866 -11.45661,-0.14755 2.69784,-6.45287 -1.14993,-4.87787"
     id="Morgan_il"
     label="Morgan, IL"
     inkscape:label="Morgan, IL"
     inkscape:connector-curvature="0" />
  <path
     d="m 426.98867,430.80411 -27.68114,-0.285 0.86239,-2.26048 -0.0101,-0.49345 -0.61157,-2.66244 -2.87312,-9.92152 -0.9233,-13.84538 1.94476,-5.81504 11.4566,0.14755 11.04935,4.66865 6.94995,15.2902 -0.16388,15.17691"
     id="Scott_il"
     label="Scott, IL"
     inkscape:label="Scott, IL"
     inkscape:connector-curvature="0" />
  <path
     d="m 400.39449,389.06793 -2.69784,6.45287 -1.94476,5.81504 0.9233,13.8454 2.87312,9.9215 0.61156,2.66244 0.0101,0.49345 -0.86239,2.26048 -3.3183,16.43228 -33.48971,-0.69053 -22.28641,-26.16509 -13.27953,-11.45312 -5.29238,-9.6672 16.24804,0.4104 28.39805,0.23831 0.0674,-11.46152 34.0398,0.90522"
     id="Pike_il"
     label="Pike, IL"
     inkscape:label="Pike, IL"
     inkscape:connector-curvature="0" />
  <path
     d="m 366.88815,354.28118 11.56969,-0.0568 9.85935,0.28126 6.81488,10.26319 1.98729,4.50664 9.07431,0.45432 -6.94851,14.45016 1.14995,4.87788 -34.03979,-0.90524 0.53345,-33.8815"
     id="Brown_il"
     label="Brown, IL"
     inkscape:label="Brown, IL"
     inkscape:connector-curvature="0" />
  <path
     d="m 367.15204,342.73109 -0.26395,11.55009 -0.53347,33.88152 -0.0674,11.46152 -28.39804,-0.2383 -16.24804,-0.41041 -8.38934,-24.48031 -4.90002,-33.34887 58.8002,1.58483"
     id="Adams_il"
     label="Adams, IL"
     inkscape:label="Adams, IL"
     inkscape:connector-curvature="0" />
  <path
     d="m 340.83398,284.47717 27.5124,0.0836 -0.9196,46.27901 -0.27472,11.89134 -58.80018,-1.58483 0.9879,-6.28591 8.26673,-16.76325 3.05034,-0.86948 0.14645,-0.0917 1.08476,-0.7986 0.29971,-1.11817 0.0464,-0.0976 0.97141,-11.60738 -3.7e-4,-1.30751 -0.44486,-1.60624 -1.47924,-2.454 -1.93639,-1.06384 -0.25445,-1.10181 0.20904,-0.95272 4.49433,-6.0614 0.38584,-0.38877 0.38217,-0.32862 0.32084,-0.31227 0.89484,-0.48837 2.53006,-1.24326 0.6014,-0.29514 0.14626,-0.0917 5.21995,-1.48104 0.0401,0.002 0.77155,0.0473 2.58682,-0.033 3.16245,0.093"
     id="Hancock_il"
     label="Hancock, IL"
     inkscape:label="Hancock, IL"
     inkscape:connector-curvature="0" />
  <path
     d="m 379.55926,285.07557 33.54987,1.18709 -0.57076,45.83769 -45.11159,-1.26055 0.9196,-46.279 11.21287,0.51487"
     id="McDonough_il"
     label="McDonough, IL"
     inkscape:label="McDonough, IL"
     inkscape:connector-curvature="0" />
  <path
     d="m 367.42678,330.83975 45.11159,1.26054 24.59464,12.10497 -15.30035,7.77406 -15.63959,17.76058 -9.07431,-0.45452 -1.98731,-4.50664 -6.81488,-10.26319 -9.85935,-0.28126 -11.56969,0.0567 0.53863,-23.44144"
     id="Schuyler_il"
     label="Schuyler, IL"
     inkscape:label="Schuyler, IL"
     inkscape:connector-curvature="0" />
  <path
     d="m 457.29929,354.05803 4.53828,-3.16211 27.42284,-3.7136 3.47904,0.83633 3.25472,4.0109 2.36242,19.09295 -11.7987,0.18355 -0.37308,4.78471 0.0598,2.63874 -6.64683,2.11791 -22.22265,0.0891 -0.0759,-26.87851"
     id="Menard_il"
     label="Menard, IL"
     inkscape:label="Menard, IL"
     inkscape:connector-curvature="0" />
  <path
     d="m 464.08986,311.27607 20.29775,-0.0258 0.29766,15.1951 10.97461,-0.19374 0.33429,25.77791 -3.25472,-4.0109 -3.47904,-0.83633 -27.42284,3.7136 -4.53828,3.16211 -0.44492,0.69693 -9.22418,3.14708 -10.00287,3.38103 -0.18645,0.0892 -8.76613,-0.39537 -6.84261,-8.98755 15.30034,-7.77407 7.10307,-5.63026 0.6815,-0.78305 5.09071,-8.24764 1.66226,-7.28058 0.66612,-2.011 0.65552,-1.01596 9.63272,-7.19541 1.46492,-0.76528"
     id="Mason_il"
     label="Mason, IL"
     inkscape:label="Mason, IL"
     inkscape:connector-curvature="0" />
  <path
     d="m 528.95524,325.35127 11.30027,5.49869 0.77508,30.41121 -7.03935,17.25068 -18.44857,0.0484 -7.76749,-1.92335 -0.0658,-5.66644 -9.35281,0.15208 -2.36242,-19.09295 -0.33429,-25.77791 33.29536,-0.90037"
     id="Logan_il"
     label="Logan, IL"
     inkscape:label="Logan, IL"
     inkscape:connector-curvature="0" />
  <path
     d="m 596.62237,330.12359 -16.30732,29.82908 -5.7554,0.0402 -22.12871,1.02012 -11.40035,0.24815 -0.77508,-30.41121 56.36686,-0.72637"
     id="DeWitt_il"
     label="DeWitt, IL"
     inkscape:label="DeWitt, IL"
     inkscape:connector-curvature="0" />
  <path
     d="m 596.62237,330.12359 11.2877,-0.21478 0.68234,52.48191 -0.87964,11.42191 -26.91116,0.44603 -0.48656,-34.30599 16.30732,-29.82908"
     id="Piatt_il"
     label="Piatt, IL"
     inkscape:label="Piatt, IL"
     inkscape:connector-curvature="0" />
  <path
     d="m 607.57847,314.61105 51.65778,-1.18535 0.91631,22.67553 -1.32063,0.0501 1.55856,45.06275 -51.79809,1.17677 -0.68234,-52.48192 -0.3316,-15.29776"
     id="Champaign_il"
     label="Champaign, IL"
     inkscape:label="Champaign, IL"
     inkscape:connector-curvature="0" />
  <path
     d="m 560.98955,269.09733 33.66712,-1.05869 0.34138,11.35575 0.92801,7.02667 11.22305,-0.30926 0.42936,28.49925 0.3316,15.29776 -11.2877,0.21478 -56.36686,0.72637 -11.30027,-5.49869 -0.89088,-35.09509 13.2342,-0.46787 8.71125,-4.13393 5.74385,-4.94901 5.23589,-11.60804"
     id="McLean_il"
     label="McLean, IL"
     inkscape:label="McLean, IL"
     inkscape:connector-curvature="0" />
  <path
     d="m 499.98837,270.44541 21.95066,-0.24656 0.0765,7.62833 0.3605,9.72763 5.6883,2.70137 0.89088,35.09509 -33.29536,0.90037 -10.97461,0.19374 -0.29766,-15.1951 -20.29775,0.0258 5.04192,-10.08111 20.8972,-11.6358 10.00412,-13.26757 0.82172,-2.25292 -0.38459,-2.42728 -0.48186,-1.16598"
     id="Tazewell_il"
     label="Tazewell, IL"
     inkscape:label="Tazewell, IL"
     inkscape:connector-curvature="0" />
  <path
     d="m 549.22033,246.76373 11.25863,-0.39759 0.51059,22.73119 -5.23589,11.60804 -5.74385,4.94901 -8.71125,4.13393 -13.2342,0.46787 -5.6883,-2.70137 -0.3605,-9.72763 -0.0765,-7.62833 -21.95066,0.24656 7.91445,-22.67854 41.31751,-1.00314"
     id="Woodford_il"
     label="Woodford, IL"
     inkscape:label="Woodford, IL"
     inkscape:connector-curvature="0" />
  <path
     d="m 491.68015,241.02172 16.22267,6.74515 -7.91445,22.67854 0.48186,1.16598 0.38459,2.42728 -0.82172,2.25292 -10.00412,13.26757 -20.8972,11.6358 0.0416,-8.73748 -0.1799,-5.774 -11.28627,-0.13715 0.27749,-11.27767 -0.0287,-34.22769 33.72424,-0.0192"
     id="Peoria_il"
     label="Peoria, IL"
     inkscape:label="Peoria, IL"
     inkscape:connector-curvature="0" />
  <path
     d="m 457.98458,275.26865 -0.27748,11.27768 11.28627,0.13715 0.17991,5.774 -0.0416,8.73748 -5.04192,10.08111 -1.46494,0.76528 -9.63273,7.1954 -0.6555,1.01596 -0.66613,2.01099 -1.66224,7.28062 -5.09072,8.24764 -0.68152,0.78304 -7.10307,5.63026 -24.59464,-12.10498 0.57076,-45.83767 0.14961,-11.32574 44.72585,0.33178"
     id="Fulton_il"
     label="Fulton, IL"
     inkscape:label="Fulton, IL"
     inkscape:connector-curvature="0" />
  <path
     d="m 380.29564,228.63725 33.58744,0.73676 -0.77395,56.8886 -33.54987,-1.18709 0.73638,-56.43833"
     id="Warren_il"
     label="Warren, IL"
     inkscape:label="Warren, IL"
     inkscape:connector-curvature="0" />
  <path
     d="m 364.44532,228.30143 15.85032,0.33582 -0.73638,56.43832 -11.21287,-0.51487 -27.51241,-0.0836 7.2702,-7.54109 1.56612,-14.58825 0.46306,-1.6513 8.20334,-10.30008 1.1046,-0.95831 2.89244,-1.4122 0.59071,-0.77854 1.05639,-3.78743 1.03426,-10.49718 -0.27769,-3.51704 -0.29207,-1.14432"
     id="Henderson_il"
     label="Henderson, IL"
     inkscape:label="Henderson, IL"
     inkscape:connector-curvature="0" />
  <path
     d="m 352.03633,193.89986 62.45486,1.19487 -0.60811,34.27928 -33.58744,-0.73676 -15.85032,-0.33582 -0.0705,-0.32616 0.28072,-3.11073 -4.09315,-7.73318 -0.76955,-0.90196 -0.7595,-0.40853 -1.30364,0.10122 -2.99242,-1.72181 -6.06202,-8.26597 -0.0339,-0.10263 -0.0347,-1.07828 3.43029,-10.8636"
     id="Mercer_il"
     label="Mercer, IL"
     inkscape:label="Mercer, IL"
     inkscape:connector-curvature="0" />
  <path
     d="m 457.98191,218.2521 -0.026,22.78886 0.0287,34.22769 -44.72584,-0.33178 0.62434,-45.56286 0.19215,-11.36336 43.90668,0.24145"
     id="Knox_il"
     label="Knox, IL"
     inkscape:label="Knox, IL"
     inkscape:connector-curvature="0" />
  <path
     d="m 470.26642,207.16567 21.25689,11.09621 0.15684,22.75984 -33.72425,0.0192 0.026,-22.78886 12.28451,-11.08643"
     id="Stark_il"
     label="Stark, IL"
     inkscape:label="Stark, IL"
     inkscape:connector-curvature="0" />
  <path
     d="m 491.52331,218.26188 16.75272,-0.11186 13.25918,-0.054 -0.36397,3.15593 -0.24312,0.85008 -0.62017,0.76668 -0.98318,0.4528 -0.57906,0.58816 19.06446,-0.2521 11.41016,23.10615 -41.31751,1.00314 -16.22267,-6.74515 -0.15684,-22.75984"
     id="Marshall_il"
     label="Marshall, IL"
     inkscape:label="Marshall, IL"
     inkscape:connector-curvature="0" />
  <path
     d="m 537.36109,196.7965 0.44908,26.86108 -19.06446,0.2521 0.57906,-0.58816 0.98318,-0.4528 0.62017,-0.76668 0.24312,-0.85008 0.36397,-3.15593 -13.25918,0.054 -0.15202,-11.16315 13.65863,-9.05119 5.41702,-2.56526 1.18032,-0.0586 8.98111,1.48466"
     id="Putnam_il"
     label="Putnam, IL"
     inkscape:label="Putnam, IL"
     inkscape:connector-curvature="0" />
  <path
     d="m 625.14729,175.52325 1.44807,34.04291 -0.46814,11.43703 -32.43934,1.37515 -1.72381,-45.48523 33.18327,-1.36986"
     id="Grundy_il"
     label="Grundy, IL"
     inkscape:label="Grundy, IL"
     inkscape:connector-curvature="0" />
  <path
     d="m 623.47186,141.41609 0.0401,0.002 1.63537,34.10471 -33.18327,1.36987 -1.00339,-22.73114 -0.15308,-11.475 32.66431,-1.27088"
     id="Kendall_il"
     label="Kendall, IL"
     inkscape:label="Kendall, IL"
     inkscape:connector-curvature="0" />
  <path
     d="m 558.58898,155.08868 32.37166,-0.92671 1.00338,22.73114 1.72381,45.48523 -33.46712,0.74906 0.25825,23.23874 -11.25863,0.39759 -11.41016,-23.10615 -0.44908,-26.86108 -0.75979,-41.51385 11.07524,0.13429 10.91244,-0.32826"
     id="La_Salle_il"
     label="La Salle, IL"
     inkscape:label="La Salle, IL"
     inkscape:connector-curvature="0" />
  <path
     d="m 536.68651,160.96034 0.67458,35.83616 -8.98114,-1.48465 -1.18029,0.0586 -5.41703,2.56525 -13.65862,9.05119 0.15201,11.16316 -16.75271,0.11185 -21.25689,-11.0962 -0.61302,-45.55808 22.22365,-0.27005 44.80945,-0.3772"
     id="Bureau_il"
     label="Bureau, IL"
     inkscape:label="Bureau, IL"
     inkscape:connector-curvature="0" />
  <path
     d="m 469.65342,161.6076 0.613,45.55807 -12.28451,11.08643 -43.90668,-0.24145 0.41596,-22.91592 0.24803,-16.88155 6.53271,-6.00711 1.18498,-0.79249 1.74999,-0.65731 4.63534,-0.80273 3.6027,-0.36297 5.13054,-2.32129 0.98123,-1.90124 0.54871,-2.22939 -0.1012,-0.81078 -0.49635,-0.76457 31.14563,0.0443"
     id="Henry_il"
     label="Henry, IL"
     inkscape:label="Henry, IL"
     inkscape:connector-curvature="0" />
  <path
     d="m 433.07717,135.57428 -0.5127,2.46292 -0.0546,2.37026 0.76534,5.24656 1.26332,3.02415 1.75896,1.82741 1.8421,0.7966 1.53251,1.08943 1.17919,1.43996 0.1131,1.76699 -0.0454,1.58629 -0.45011,2.91934 -0.25561,0.39672 -1.70436,1.06243 0.49635,0.76457 0.1012,0.81077 -0.54871,2.2294 -0.98124,1.90124 -5.13053,2.32129 -3.6027,0.36297 -4.63535,0.80272 -1.74998,0.65732 -1.18498,0.79249 -6.53271,6.00713 -0.24804,16.88153 -62.45485,-1.19487 0,0 1.41317,-4.35901 1.68038,-5.43894 0.10551,-0.24501 0.74021,-0.92022 0,0 0.0902,0.005 1.07312,-0.60823 3.70756,-1.09079 13.77331,-2.86883 5.91798,0.26149 1.38176,0.26556 3.30273,0.10172 7.89693,-1.50838 18.79938,-7.92212 6.14028,-6.33285 5.42188,-6.42708 2.35404,-13.98691 7.23814,-7.18093"
     id="Rock_Island_il"
     label="Rock Island, IL"
     inkscape:label="Rock Island, IL"
     inkscape:connector-curvature="0" />
  <path
     d="m 491.82524,120.08824 6.43285,-0.0994 19.3751,-0.23308 0.024,1.9124 40.21736,-0.93966 0.71458,34.36016 -10.91243,0.32826 -11.07524,-0.13429 0.0852,5.67769 -44.80946,0.3772 -0.0518,-41.2493"
     id="Lee_il"
     label="Lee, IL"
     inkscape:label="Lee, IL"
     inkscape:connector-curvature="0" />
  <path
     d="m 486.34097,116.35336 5.48427,3.73488 0.0518,41.24929 -22.22363,0.27007 -31.14562,-0.0443 1.70437,-1.06243 0.2556,-0.39672 0.4501,-2.91935 0.0454,-1.58628 -0.1131,-1.76699 -1.1792,-1.43996 -1.53249,-1.08945 -1.84212,-0.79659 -1.75895,-1.82741 -1.26331,-3.02414 -0.76535,-5.24656 0.0546,-2.37026 0.51271,-2.46292 8.63654,-18.86278 44.62726,-0.35814"
     id="Whiteside_il"
     label="Whiteside, IL"
     inkscape:label="Whiteside, IL"
     inkscape:connector-curvature="0" />
  <path
     d="m 485.97625,81.370891 0.36472,34.982469 -44.62726,0.35816 -0.21534,-13.58087 -15.48638,-20.921539 37.91934,-0.36614 22.04492,-0.47208"
     id="Carroll_il"
     label="Carroll, IL"
     inkscape:label="Carroll, IL"
     inkscape:connector-curvature="0" />
  <path
     d="m 513.9017,80.78575 21.34042,-0.46487 0.0638,7.014014 22.28028,-0.538151 0.28818,33.931777 -40.21737,0.93965 -0.024,-1.9124 -19.37511,0.23308 -6.43286,0.0994 -5.48427,-3.73487 -0.36471,-34.982479 27.92545,-0.585131"
     id="Ogle_il"
     label="Ogle, IL"
     inkscape:label="Ogle, IL"
     inkscape:connector-curvature="0" />
  <path
     d="m 591.13864,86.133353 -0.33108,56.553607 0.15308,11.47501 -32.37166,0.92671 -0.71458,-34.36016 -0.28818,-33.931777 22.38743,-0.48134 11.16499,-0.18205"
     id="DeKalb_il"
     label="DeKalb, IL"
     inkscape:label="DeKalb, IL"
     inkscape:connector-curvature="0" />
  <path
     d="m 624.63093,85.466273 -1.93333,21.907847 0.77426,34.04197 -32.6643,1.27087 0.33108,-56.553607 33.49229,-0.66708"
     id="Kane_il"
     label="Kane, IL"
     inkscape:label="Kane, IL"
     inkscape:connector-curvature="0" />
  <path
     d="m 572.51865,42.119048 6.58074,-0.0501 0.87426,44.246455 -22.38743,0.48134 -0.66182,-44.59555 15.59425,-0.08215"
     id="Boone_il"
     label="Boone, IL"
     inkscape:label="Boone, IL"
     inkscape:connector-curvature="0" />
  <path
     d="m 556.9244,42.201195 0.66182,44.595548 -22.28028,0.538151 -0.0638,-7.014014 -21.34042,0.46487 -0.85328,-38.834203 3.39965,-0.0032 40.47633,0.252925"
     id="Winnebago_il"
     label="Winnebago, IL"
     inkscape:label="Winnebago, IL"
     inkscape:connector-curvature="0" />
  <path
     d="m 471.60504,41.559039 41.44338,0.392508 0.85328,38.834203 -27.92545,0.585141 -22.04492,0.47208 -0.80326,-40.309595 8.47697,0.02566"
     id="Stephenson_il"
     label="Stephenson, IL"
     inkscape:label="Stephenson, IL"
     inkscape:connector-curvature="0" />
  <path
     d="m 463.12807,41.533376 0.80326,40.309595 -37.91934,0.36614 -3.90015,-1.515861 -1.68427,-1.23952 -1.55297,-1.412541 -0.084,-0.10571 -2.50831,-3.552902 -0.0616,-0.14443 -1.14066,-3.056891 0.0502,-0.82164 0.61524,-1.179331 0.76479,-3.624262 -0.0199,-0.49403 -0.24482,-0.43739 -5.27874,-6.930703 -0.22638,-0.24516 -0.0401,-0.002 -7.77062,-6.147743 -6.18116,-3.687014 -2.10759,-1.718001 -0.72251,-0.848798 -0.18061,-0.664784 -0.0461,-0.726949 0.0586,-0.298163 1.46116,-2.183617 20.37201,0.240221 47.54354,0.142053"
     id="Jo_Daviess_il"
     label="Jo Daviess, IL"
     inkscape:label="Jo Daviess, IL"
     inkscape:connector-curvature="0" />
  </g>
  <g id="sales_data_1" style="position: absolute; visibility:hidden;z-index:99999">
    <rect style="shape-rendering: geometricPrecision; fill: black; fill-opacity: 0.6; stroke: white; stroke-width: 4px; vector-effect: non-scaling-stroke" width="370" rx="11.9" y="2" height="110" x="0"></rect>
    <text x="12" y="22" style="stroke: white; font: 14px Open Sans,sans-serif; text-anchor: left; fill: white">
      <tspan id="tspan1" x="12" y="24.6"></tspan>
      <tspan id="tspan2" x="12" y="41.6"></tspan>
      <a id="tspan3a" xmlns:xlink="http://www.w3.org/1999/xlink" xlink:href="tel:12182600581" x="12" y="58.6">
        <tspan id="tspan3" x="12" y="58.6"></tspan>
      </a>
      <a id="tspan4a" xmlns:xlink="http://www.w3.org/1999/xlink" xlink:href="tel:12182600581" x="12" y="75.6">
        <tspan id="tspan4" x="12" y="75.6"></tspan>
      </a>
      <a id="tspan5a" x="12" y="92.6" xmlns:xlink="http://www.w3.org/1999/xlink" xlink:href="mailto:slaine@amstate.com">
        <tspan id="tspan5" x="12" y="92.6"></tspan>
      </a>
    </text>
  </g>
  <g id="sales_data_2" style="position: absolute; visibility:hidden;z-index:99999">
    <rect style="shape-rendering: geometricPrecision; fill: black; fill-opacity: 0.6; stroke: white; stroke-width: 4px; vector-effect: non-scaling-stroke" width="370" rx="11.9" y="132" height="110" x="0"></rect>
    <text x="12" y="152" style="stroke: white; font: 14px Open Sans,sans-serif; text-anchor: left; fill: white">
      <tspan id="tspan6" x="12" y="154.6"></tspan>
      <tspan id="tspan7" x="12" y="171.6"></tspan>
      <a id="tspan8a" xmlns:xlink="http://www.w3.org/1999/xlink" xlink:href="tel:12182600581" x="12" y="188.6">
        <tspan id="tspan8" x="12" y="188.6"></tspan>
      </a>
      <a id="tspan9a" xmlns:xlink="http://www.w3.org/1999/xlink" xlink:href="tel:12182600581" x="12" y="205.6">
        <tspan id="tspan9" x="12" y="205.6"></tspan>
      </a>
      <a id="tspan10a" x="12" y="222.6" xmlns:xlink="http://www.w3.org/1999/xlink" xlink:href="mailto:slaine@amstate.com">
        <tspan id="tspan10" x="12" y="222.6"></tspan>
      </a>
    </text>
  </g>
  <g id="sales_data_3" style="position: absolute; visibility:hidden;z-index:99999">
    <rect style="shape-rendering: geometricPrecision; fill: black; fill-opacity: 0.6; stroke: white; stroke-width: 4px; vector-effect: non-scaling-stroke" width="370" rx="11.9" y="262" height="110" x="0"></rect>
    <text x="12" y="292" style="stroke: white; font: 14px Open Sans,sans-serif; text-anchor: center; fill: white">
      <tspan x="30" y="292">
        *Some Counties are covered by more than one
      </tspan>
      <tspan x="12" y="309">
        salesperson. If the County you selected has multiple
      </tspan>
      <tspan x="17" y="326">
        salespeople listed please contact the office for the
      </tspan>
      <tspan x="30" y="341">
        appropriate salesperson's contact information.
      </tspan>
    </text>
  </g>
  <g id="text_boxes"></g>
</svg>
